<svg width="22" height="17" viewBox="0 0 22 17" fill="none" xmlns="http://www.w3.org/2000/svg">
<path d="M9.35421 1.00561C9.62072 1.28482 9.74865 1.6222 9.73798 2.01775C9.72644 2.4133 9.58741 2.75068 9.32089 3.02989L5.55639 6.97376L20.4145 6.97376C20.7921 6.97376 21.1088 7.10778 21.3646 7.37582C21.6196 7.64293 21.7471 7.97426 21.7471 8.36981C21.7471 8.76536 21.6196 9.09716 21.3646 9.3652C21.1088 9.63232 20.7921 9.76587 20.4145 9.76587L5.55639 9.76587L9.35421 13.7446C9.62072 14.0238 9.75398 14.3556 9.75398 14.74C9.75397 15.1235 9.62072 15.4548 9.35421 15.734C9.08769 16.0132 8.77099 16.1528 8.40409 16.1528C8.03807 16.1528 7.72181 16.0132 7.4553 15.734L1.35881 9.34705C1.22555 9.20745 1.13094 9.05621 1.07497 8.89333C1.01989 8.73046 0.992352 8.55595 0.992352 8.36981C0.992352 8.18367 1.01989 8.00916 1.07497 7.84629C1.13094 7.68342 1.22555 7.53218 1.35881 7.39257L7.48861 0.97071C7.73292 0.714767 8.03808 0.586793 8.40409 0.586793C8.77099 0.586793 9.08769 0.7264 9.35421 1.00561Z" fill="black"/>
</svg>
